<svg xmlns="http://www.w3.org/2000/svg" version="1.1" xmlns:xlink="http://www.w3.org/1999/xlink" xmlns:svgjs="http://svgjs.dev/svgjs" width="1000" height="623" viewBox="0 0 1000 623"><g transform="matrix(1,0,0,1,-0.6060606060606233,0.2522267206477409)"><svg viewBox="0 0 396 247" data-background-color="#fffdfd" preserveAspectRatio="xMidYMid meet" height="623" width="1000" xmlns="http://www.w3.org/2000/svg" xmlns:xlink="http://www.w3.org/1999/xlink"><g id="tight-bounds" transform="matrix(1,0,0,1,0.2400000000000091,-0.09999999999999432)"><svg viewBox="0 0 395.52 247.2" height="247.2" width="395.52"><g><svg></svg></g><g><svg viewBox="0 0 395.52 247.2" height="247.2" width="395.52"><g transform="matrix(1,0,0,1,75.54432,83.53717689376887)"><svg viewBox="0 0 244.43135999999998 80.12564621246223" height="80.12564621246223" width="244.43135999999998"><g><svg viewBox="0 0 460.81942563669486 151.05858048000002" height="80.12564621246223" width="244.43135999999998"><g><rect width="7.645791461353375" height="128.684001866611" x="171.07374137359523" y="11.18728930669451" fill="#057980" opacity="1" stroke-width="0" stroke="transparent" fill-opacity="1" class="rect-r$-0" data-fill-palette-color="primary" rx="1%" id="r$-0" data-palette-color="#057980"></rect></g><g><rect width="7.645791461353375" height="128.684001866611" x="188.7271132817462" y="11.18728930669451" fill="#057980" opacity="1" stroke-width="0" stroke="transparent" fill-opacity="1" class="rect-r$-1" data-fill-palette-color="primary" rx="1%" id="r$-1" data-palette-color="#057980"></rect></g><g transform="matrix(1,0,0,1,216.38806563669482,11.507398764074125)"><svg viewBox="0 0 244.43136 128.04378295185177" height="128.04378295185177" width="244.43136"><g id="textblocktransform"><svg viewBox="0 0 244.43136 128.04378295185177" height="128.04378295185177" width="244.43136" id="textblock"><g><svg viewBox="0 0 244.43136 84.78270088274633" height="84.78270088274633" width="244.43136"><g transform="matrix(1,0,0,1,0,0)"><svg width="244.43136" viewBox="1 -38.9 111.15 38.9" height="84.78270088274633" data-palette-color="#057980"><g class="wordmark-text-0" data-fill-palette-color="primary" id="text-0"><path d="M56.15-38.9L56.15-30.7 53.65-30.7 53.65-8.2 56.15-8.2 56.15 0 37.25 0 37.25-8.2 39.65-8.2 39.65-25.7 31.15 0 23.75 0 15-25.45 15-8.2 17.4-8.2 17.4 0 1 0 1-8.2 3.5-8.2 3.5-30.7 1-30.7 1-38.9 23.9-38.9 29.1-23.3 34.1-38.9 56.15-38.9Z" fill="#057980" data-fill-palette-color="primary"></path><path d="M112.15-38.9L112.15-30.7 109.65-30.7 109.65-8.2 112.15-8.2 112.15 0 93.25 0 93.25-8.2 95.65-8.2 95.65-16.45 88.65-16.45 88.65-8.2 91.05-8.2 91.05 0 72.15 0 72.15-8.2 74.65-8.2 74.65-30.7 72.15-30.7 72.15-38.9 91.05-38.9 91.05-30.7 88.65-30.7 88.65-23.1 95.65-23.1 95.65-30.7 93.25-30.7 93.25-38.9 112.15-38.9Z" fill="#43c7be" data-fill-palette-color="secondary"></path></g></svg></g></svg></g><g transform="matrix(1,0,0,1,0,104.79786177634155)"><svg viewBox="0 0 244.43136 23.245921175510205" height="23.245921175510205" width="244.43136"><g transform="matrix(1,0,0,1,0,0)"><svg width="244.43136" viewBox="3.3 -34.6 383.85 34.95" height="23.245921175510205" data-palette-color="#43c7be"><g class="slogan-text-1" data-fill-palette-color="secondary" id="text-1"><path d="M32.85-5.2L32.85-18.3 26.6-5.5Q25.8-3.9 24.9-3.23 24-2.55 22.75-2.55L22.75-2.55Q21.15-2.55 20.05-3.68 18.95-4.8 17.2-7.75L17.2-7.75 11.4-18.3 11.4-4.15Q11.4-2 10.43-1 9.45 0 7.5 0L7.5 0Q5.3 0 4.3-0.98 3.3-1.95 3.3-4.8L3.3-4.8 3.3-26.6Q3.3-30.45 5.05-32.4 6.8-34.35 10.95-34.35L10.95-34.35Q12.5-34.35 13.65-33.83 14.8-33.3 15.38-32.63 15.95-31.95 16.5-30.95L16.5-30.95 23.2-16.3 30.3-30.7Q32.15-34.3 36.95-34.3L36.95-34.3Q39.2-34.3 40.8-33.52 42.4-32.75 43.33-31.03 44.25-29.3 44.25-26.7L44.25-26.7 44.25-4.95Q44.2 0 38 0L38 0Q35.75 0 34.33-1.23 32.9-2.45 32.85-5.2L32.85-5.2ZM58.7 0.3L58.7 0.3Q54.75 0.3 52.15-2.93 49.55-6.15 49.55-11.75L49.55-11.75Q49.55-17.45 52.12-20.83 54.7-24.2 58.7-24.2L58.7-24.2Q62.75-24.2 66.2-21.35L66.2-21.35Q67.55-23.85 70.55-23.85L70.55-23.85Q73.25-23.85 74.75-22.68 76.25-21.5 76.25-18.35L76.25-18.35 76.25-5.35Q76.25-2.35 75-1.18 73.75 0 70.6 0L70.6 0Q67.3 0 66.25-1.85L66.25-1.85Q63.05 0.3 58.7 0.3ZM65.5-7.2L65.5-16.55Q64.65-18 63.3-18L63.3-18Q62-18 61.2-16.1 60.4-14.2 60.4-11.75L60.4-11.75Q60.4-9.45 61.15-7.65 61.9-5.85 63.25-5.85L63.25-5.85Q64.65-5.85 65.5-7.2L65.5-7.2ZM96.65-4.15L96.6-13.4Q96.6-16.25 94.4-16.25L94.4-16.25Q94-16.25 93.67-16.15 93.35-16.05 93.07-15.9 92.8-15.75 92.57-15.48 92.35-15.2 92.17-14.88 92-14.55 91.92-14.1 91.85-13.65 91.85-13.1L91.85-13.1 91.85-7.6Q91.85-3.5 90.52-1.78 89.2-0.05 86.5-0.05L86.5-0.05Q83.7-0.05 82.4-1.63 81.1-3.2 81.1-7.2L81.1-7.2 81-28.5Q81-31.6 82.5-33.05 84-34.5 86.5-34.5L86.5-34.5Q89.15-34.5 90.5-33.4 91.85-32.3 91.85-28.95L91.85-28.95 91.85-21.7Q95.55-23.95 100.85-23.95L100.85-23.95Q103.25-23.95 104.7-22.73 106.15-21.5 106.85-18.85 107.55-16.2 107.55-11.9L107.55-11.9Q107.55-9.7 107.47-8.1 107.4-6.5 107.25-5.18 107.1-3.85 106.8-3 106.5-2.15 106.1-1.55 105.7-0.95 105.07-0.63 104.45-0.3 103.7-0.15 102.95 0 101.9 0L101.9 0Q99.1 0 97.87-1.03 96.65-2.05 96.65-4.15L96.65-4.15ZM138.79-28.7L138.79-7.5Q138.79-3.45 137.44-1.73 136.09 0 133.29 0L133.29 0Q130.09 0 128.89-2L128.89-2Q125.64 0.35 121.04 0.35L121.04 0.35Q117.14 0.35 114.54-2.88 111.94-6.1 111.94-11.7L111.94-11.7Q111.94-17.4 114.49-20.78 117.04-24.15 121.04-24.15L121.04-24.15Q124.64-24.15 127.79-21.85L127.79-21.85 127.79-28.25Q127.79-31.3 129.29-32.77 130.79-34.25 133.29-34.25L133.29-34.25Q136.04-34.25 137.42-33.15 138.79-32.05 138.79-28.7L138.79-28.7ZM127.89-7.2L127.89-7.2 127.84-16.55Q126.99-17.95 125.64-17.95L125.64-17.95Q124.79-17.95 124.12-17 123.44-16.05 123.09-14.65 122.74-13.25 122.74-11.7L122.74-11.7Q122.74-9.4 123.49-7.6 124.24-5.8 125.59-5.8L125.59-5.8Q125.84-5.8 126.09-5.85 126.34-5.9 126.54-5.98 126.74-6.05 126.94-6.18 127.14-6.3 127.29-6.45 127.44-6.6 127.59-6.8 127.74-7 127.89-7.2ZM143.24-30.8L143.24-30.8Q143.24-32.45 144.67-33.52 146.09-34.6 148.69-34.6L148.69-34.6Q154.14-34.6 154.14-30.8L154.14-30.8Q154.14-28.7 152.77-27.85 151.39-27 148.69-27L148.69-27Q146.34-27 144.79-27.9 143.24-28.8 143.24-30.8ZM154.09-18.35L154.09-5.35Q154.09-2.35 152.84-1.18 151.59 0 148.44 0L148.44 0Q145.49 0 144.42-1.38 143.34-2.75 143.34-5.9L143.34-5.9 143.34-18.2Q143.34-20.75 144.72-22.3 146.09-23.85 148.39-23.85L148.39-23.85Q151.09-23.85 152.59-22.68 154.09-21.5 154.09-18.35L154.09-18.35Z" fill="#057980" data-fill-palette-color="primary"></path><path d="M221.87-28.7L221.87-7.5Q221.87-3.45 220.42-1.73 218.97 0 216.02 0L216.02 0Q213.12 0 211.77-1.58 210.42-3.15 210.42-7.15L210.42-7.15 210.37-12.8 200.17-12.8 200.17-7.5Q200.17-3.4 198.77-1.7 197.37 0 194.32 0L194.32 0Q191.42 0 190.07-1.58 188.72-3.15 188.72-7.15L188.72-7.15 188.57-28.25Q188.57-31.35 190.14-32.8 191.72-34.25 194.32-34.25L194.32-34.25Q197.32-34.25 198.74-33.15 200.17-32.05 200.17-28.7L200.17-28.7 200.17-20.3 210.32-20.3 210.32-28.25Q210.32-30.35 211.09-31.73 211.87-33.1 213.09-33.68 214.32-34.25 216.02-34.25L216.02-34.25Q218.92-34.25 220.39-33.15 221.87-32.05 221.87-28.7L221.87-28.7ZM235.97 0.3L235.97 0.3Q232.02 0.3 229.42-2.93 226.82-6.15 226.82-11.75L226.82-11.75Q226.82-17.45 229.39-20.83 231.97-24.2 235.97-24.2L235.97-24.2Q240.02-24.2 243.47-21.35L243.47-21.35Q244.81-23.85 247.81-23.85L247.81-23.85Q250.52-23.85 252.02-22.68 253.52-21.5 253.52-18.35L253.52-18.35 253.52-5.35Q253.52-2.35 252.27-1.18 251.02 0 247.87 0L247.87 0Q244.56 0 243.52-1.85L243.52-1.85Q240.31 0.3 235.97 0.3ZM242.77-7.2L242.77-16.55Q241.92-18 240.56-18L240.56-18Q239.27-18 238.47-16.1 237.67-14.2 237.67-11.75L237.67-11.75Q237.67-9.45 238.42-7.65 239.17-5.85 240.52-5.85L240.52-5.85Q241.92-5.85 242.77-7.2L242.77-7.2ZM269.96-24.2L269.96-24.2Q274.61-24.2 277.71-22.3 280.81-20.4 280.81-18.15L280.81-18.15Q280.81-17.5 280.26-16.95 279.71-16.4 278.86-16.4L278.86-16.4Q278.11-16.4 277.21-16.93 276.31-17.45 275.51-18.05 274.71-18.65 273.41-19.15 272.11-19.65 270.66-19.65L270.66-19.65Q268.71-19.65 268.71-18.45L268.71-18.45Q268.71-17.6 269.71-17.1 270.71-16.6 272.64-16.05 274.56-15.5 275.56-15L275.56-15Q279.31-13.55 280.71-11.88 282.11-10.2 282.11-7.45L282.11-7.45Q282.11-6.1 281.36-4.78 280.61-3.45 279.11-2.27 277.61-1.1 275.04-0.38 272.46 0.35 269.16 0.35L269.16 0.35Q262.71 0.35 259.51-2.6L259.51-2.6Q257.96-4.05 257.96-5.6L257.96-5.6Q257.96-6.55 258.59-7.1 259.21-7.65 260.36-7.65L260.36-7.65Q261.51-7.65 263.86-6.53 266.21-5.4 268.21-5.4L268.21-5.4Q270.96-5.4 270.96-6.75L270.96-6.75Q270.96-7.45 269.51-7.88 268.06-8.3 265.71-8.9 263.36-9.5 261.96-10.4L261.96-10.4Q259.76-11.35 258.89-12.78 258.01-14.2 258.01-16.25L258.01-16.25Q258.01-19.75 261.34-21.98 264.66-24.2 269.96-24.2ZM298.06-24.2L298.06-24.2Q302.71-24.2 305.81-22.3 308.91-20.4 308.91-18.15L308.91-18.15Q308.91-17.5 308.36-16.95 307.81-16.4 306.96-16.4L306.96-16.4Q306.21-16.4 305.31-16.93 304.41-17.45 303.61-18.05 302.81-18.65 301.51-19.15 300.21-19.65 298.76-19.65L298.76-19.65Q296.81-19.65 296.81-18.45L296.81-18.45Q296.81-17.6 297.81-17.1 298.81-16.6 300.74-16.05 302.66-15.5 303.66-15L303.66-15Q307.41-13.55 308.81-11.88 310.21-10.2 310.21-7.45L310.21-7.45Q310.21-6.1 309.46-4.78 308.71-3.45 307.21-2.27 305.71-1.1 303.14-0.38 300.56 0.35 297.26 0.35L297.26 0.35Q290.81 0.35 287.61-2.6L287.61-2.6Q286.06-4.05 286.06-5.6L286.06-5.6Q286.06-6.55 286.69-7.1 287.31-7.65 288.46-7.65L288.46-7.65Q289.61-7.65 291.96-6.53 294.31-5.4 296.31-5.4L296.31-5.4Q299.06-5.4 299.06-6.75L299.06-6.75Q299.06-7.45 297.61-7.88 296.16-8.3 293.81-8.9 291.46-9.5 290.06-10.4L290.06-10.4Q287.86-11.35 286.99-12.78 286.11-14.2 286.11-16.25L286.11-16.25Q286.11-19.75 289.44-21.98 292.76-24.2 298.06-24.2ZM323.36 0.3L323.36 0.3Q319.41 0.3 316.81-2.93 314.21-6.15 314.21-11.75L314.21-11.75Q314.21-17.45 316.78-20.83 319.36-24.2 323.36-24.2L323.36-24.2Q327.41-24.2 330.86-21.35L330.86-21.35Q332.21-23.85 335.21-23.85L335.21-23.85Q337.91-23.85 339.41-22.68 340.91-21.5 340.91-18.35L340.91-18.35 340.91-5.35Q340.91-2.35 339.66-1.18 338.41 0 335.26 0L335.26 0Q331.96 0 330.91-1.85L330.91-1.85Q327.71 0.3 323.36 0.3ZM330.16-7.2L330.16-16.55Q329.31-18 327.96-18L327.96-18Q326.66-18 325.86-16.1 325.06-14.2 325.06-11.75L325.06-11.75Q325.06-9.45 325.81-7.65 326.56-5.85 327.91-5.85L327.91-5.85Q329.31-5.85 330.16-7.2L330.16-7.2ZM361.01-4.15L360.96-13.45Q360.96-16.25 358.76-16.25L358.76-16.25Q357.71-16.25 357.03-15.38 356.36-14.5 356.26-13.05L356.26-13.05 356.26-5.35Q356.26-2.3 355.01-1.15 353.76 0 350.61 0L350.61 0Q347.66 0 346.58-1.38 345.51-2.75 345.51-5.9L345.51-5.9 345.51-18.2Q345.51-20.75 346.88-22.3 348.26-23.85 350.56-23.85L350.56-23.85Q352.46-23.85 353.76-23.3 355.06-22.75 355.71-21.4L355.71-21.4Q359.61-23.95 365.21-23.95L365.21-23.95Q368.76-23.95 370.33-21.15 371.91-18.35 371.91-11.95L371.91-11.95Q371.91-8.8 371.76-6.83 371.61-4.85 371.28-3.43 370.96-2 370.26-1.3 369.56-0.6 368.63-0.3 367.71 0 366.26 0L366.26 0Q363.46 0 362.23-1.05 361.01-2.1 361.01-4.15L361.01-4.15ZM376.25-30.8L376.25-30.8Q376.25-32.45 377.68-33.52 379.1-34.6 381.7-34.6L381.7-34.6Q387.15-34.6 387.15-30.8L387.15-30.8Q387.15-28.7 385.78-27.85 384.4-27 381.7-27L381.7-27Q379.35-27 377.8-27.9 376.25-28.8 376.25-30.8ZM387.1-18.35L387.1-5.35Q387.1-2.35 385.85-1.18 384.6 0 381.45 0L381.45 0Q378.5 0 377.43-1.38 376.35-2.75 376.35-5.9L376.35-5.9 376.35-18.2Q376.35-20.75 377.73-22.3 379.1-23.85 381.4-23.85L381.4-23.85Q384.1-23.85 385.6-22.68 387.1-21.5 387.1-18.35L387.1-18.35Z" fill="#43c7be" data-fill-palette-color="secondary"></path></g></svg></g></svg></g></svg></g></svg></g><g><svg viewBox="0 0 151.05858048000002 151.05858048000002" height="151.05858048000002" width="151.05858048000002"><g><svg xmlns="http://www.w3.org/2000/svg" xmlns:xlink="http://www.w3.org/1999/xlink" version="1.1" x="0" y="0" viewBox="5 5 90 90" enable-background="new 0 0 100 100" xml:space="preserve" height="151.05858048000002" width="151.05858048000002" class="icon-icon-0" data-fill-palette-color="accent" id="icon-0"><path d="M50 5C25.1 5 5 25.1 5 50c0 24.8 20.1 45 45 45 24.9 0 45-20.2 45-45C95 25.1 74.9 5 50 5L50 5zM50 77c-14.9 0-27-12.1-27-27 0-14.9 12.1-27 27-27 14.9 0 27 12.1 27 27C77 64.9 64.9 77 50 77L50 77zM40.3 30.7C34 33.9 29.5 40 28.6 47.3h8C36.8 40.7 38.2 35 40.3 30.7L40.3 30.7zM50 70.7c3.1 0 7.3-6.8 8-18H42C42.7 63.9 46.9 70.7 50 70.7L50 70.7zM28.6 52.7c1 7.5 5.7 13.8 12.4 16.9-2.4-4.2-4-10-4.4-16.9H28.6zM59.7 30.7c2.1 4.3 3.5 10 3.8 16.6h7.9C70.5 40 66 33.9 59.7 30.7L59.7 30.7zM50 28.4c-3.2 0-7.5 7.1-8 18.9H58C57.5 35.5 53.2 28.4 50 28.4L50 28.4zM59 69.5c6.6-3.1 11.4-9.3 12.4-16.9h-8C63 59.5 61.5 65.4 59 69.5z" fill="#43c7be" data-fill-palette-color="accent"></path></svg></g></svg></g></svg></g></svg></g><g><path d="M0 123.6c0-68.262 55.338-123.6 123.6-123.6 52.244 0 96.918 32.414 115.007 78.229l-2.184 0c-17.98-44.669-61.72-76.201-112.823-76.201-67.142 0-121.572 54.43-121.572 121.572 0 67.142 54.43 121.572 121.572 121.572 51.104 0 94.843-31.532 112.823-76.201l2.184 0c-18.089 45.815-62.763 78.229-115.007 78.229-68.262 0-123.6-55.338-123.6-123.6z" fill="#057980" stroke="transparent" data-fill-palette-color="tertiary"></path></g></svg></g><defs></defs></svg><rect width="395.52" height="247.2" fill="none" stroke="none" visibility="hidden"></rect></g></svg></g></svg>