<svg xmlns="http://www.w3.org/2000/svg" version="1.1" xmlns:xlink="http://www.w3.org/1999/xlink" xmlns:svgjs="http://svgjs.dev/svgjs" width="2000" height="1247" viewBox="0 0 2000 1247"><g transform="matrix(1,0,0,1,-1.2121212121212466,0.504858299595071)"><svg viewBox="0 0 396 247" data-background-color="#fffdfd" preserveAspectRatio="xMidYMid meet" height="1247" width="2000" xmlns="http://www.w3.org/2000/svg" xmlns:xlink="http://www.w3.org/1999/xlink"><g id="tight-bounds" transform="matrix(1,0,0,1,0.2400000000000091,-0.09999999999999432)"><svg viewBox="0 0 395.52 247.2" height="247.2" width="395.52"><g><svg></svg></g><g><svg viewBox="0 0 395.52 247.2" height="247.2" width="395.52"><g transform="matrix(1,0,0,1,75.54432,79.35843486645172)"><svg viewBox="0 0 244.43135999999998 88.48313026709654" height="88.48313026709654" width="244.43135999999998"><g><svg viewBox="0 0 485.51538408662793 175.75453892993318" height="88.48313026709654" width="244.43135999999998"><g><rect width="7.645791461353375" height="85.20661438716004" x="195.7696998235284" y="45.273962271386566" fill="#057980" opacity="1" stroke-width="0" stroke="transparent" fill-opacity="1" class="rect-r$-0" data-fill-palette-color="primary" rx="1%" id="r$-0" data-palette-color="#057980"></rect></g><g><rect width="7.645791461353375" height="85.20661438716004" x="213.42307173167939" y="45.273962271386566" fill="#057980" opacity="1" stroke-width="0" stroke="transparent" fill-opacity="1" class="rect-r$-1" data-fill-palette-color="primary" rx="1%" id="r$-1" data-palette-color="#057980"></rect></g><g transform="matrix(1,0,0,1,241.084024086628,45.485919023593425)"><svg viewBox="0 0 244.43136 84.78270088274633" height="84.78270088274633" width="244.43136"><g id="textblocktransform"><svg viewBox="0 0 244.43136 84.78270088274633" height="84.78270088274633" width="244.43136" id="textblock"><g><svg viewBox="0 0 244.43136 84.78270088274633" height="84.78270088274633" width="244.43136"><g transform="matrix(1,0,0,1,0,0)"><svg width="244.43136" viewBox="1 -38.9 111.15 38.9" height="84.78270088274633" data-palette-color="#057980"><g class="wordmark-text-0" data-fill-palette-color="primary" id="text-0"><path d="M56.15-38.9L56.15-30.7 53.65-30.7 53.65-8.2 56.15-8.2 56.15 0 37.25 0 37.25-8.2 39.65-8.2 39.65-25.7 31.15 0 23.75 0 15-25.45 15-8.2 17.4-8.2 17.4 0 1 0 1-8.2 3.5-8.2 3.5-30.7 1-30.7 1-38.9 23.9-38.9 29.1-23.3 34.1-38.9 56.15-38.9Z" fill="#057980" data-fill-palette-color="primary"></path><path d="M112.15-38.9L112.15-30.7 109.65-30.7 109.65-8.2 112.15-8.2 112.15 0 93.25 0 93.25-8.2 95.65-8.2 95.65-16.45 88.65-16.45 88.65-8.2 91.05-8.2 91.05 0 72.15 0 72.15-8.2 74.65-8.2 74.65-30.7 72.15-30.7 72.15-38.9 91.05-38.9 91.05-30.7 88.65-30.7 88.65-23.1 95.65-23.1 95.65-30.7 93.25-30.7 93.25-38.9 112.15-38.9Z" fill="#43c7be" data-fill-palette-color="secondary"></path></g></svg></g></svg></g></svg></g></svg></g><g><svg viewBox="0 0 175.75453892993318 175.75453892993318" height="175.75453892993318" width="175.75453892993318"><g><svg xmlns="http://www.w3.org/2000/svg" xmlns:xlink="http://www.w3.org/1999/xlink" version="1.1" x="0" y="0" viewBox="5 5 90 90" enable-background="new 0 0 100 100" xml:space="preserve" height="175.75453892993318" width="175.75453892993318" class="icon-icon-0" data-fill-palette-color="accent" id="icon-0"><path d="M50 5C25.1 5 5 25.1 5 50c0 24.8 20.1 45 45 45 24.9 0 45-20.2 45-45C95 25.1 74.9 5 50 5L50 5zM50 77c-14.9 0-27-12.1-27-27 0-14.9 12.1-27 27-27 14.9 0 27 12.1 27 27C77 64.9 64.9 77 50 77L50 77zM40.3 30.7C34 33.9 29.5 40 28.6 47.3h8C36.8 40.7 38.2 35 40.3 30.7L40.3 30.7zM50 70.7c3.1 0 7.3-6.8 8-18H42C42.7 63.9 46.9 70.7 50 70.7L50 70.7zM28.6 52.7c1 7.5 5.7 13.8 12.4 16.9-2.4-4.2-4-10-4.4-16.9H28.6zM59.7 30.7c2.1 4.3 3.5 10 3.8 16.6h7.9C70.5 40 66 33.9 59.7 30.7L59.7 30.7zM50 28.4c-3.2 0-7.5 7.1-8 18.9H58C57.5 35.5 53.2 28.4 50 28.4L50 28.4zM59 69.5c6.6-3.1 11.4-9.3 12.4-16.9h-8C63 59.5 61.5 65.4 59 69.5z" fill="#43c7be" data-fill-palette-color="accent"></path></svg></g></svg></g></svg></g></svg></g><g><path d="M0 123.6c0-68.262 55.338-123.6 123.6-123.6 50.746 0 94.349 30.581 113.385 74.32h-2.102c-18.914-42.648-61.624-72.396-111.283-72.395-67.199 0-121.675 54.476-121.675 121.675 0 67.199 54.476 121.675 121.675 121.675 49.658 0 92.369-29.748 111.283-72.395h2.102c-19.036 43.739-62.639 74.32-113.385 74.32-68.262 0-123.6-55.338-123.6-123.6z" fill="#057980" stroke="transparent" data-fill-palette-color="tertiary"></path></g></svg></g><defs></defs></svg><rect width="395.52" height="247.2" fill="none" stroke="none" visibility="hidden"></rect></g></svg></g></svg>